<mxfile host="Electron" modified="2024-04-13T00:54:06.530Z" agent="Mozilla/5.0 (Windows NT 10.0; Win64; x64) AppleWebKit/537.36 (KHTML, like Gecko) draw.io/23.0.2 Chrome/120.0.6099.109 Electron/28.1.0 Safari/537.36" etag="nziCrJagt_3anAhzOMCl" version="23.0.2" type="device">
  <diagram name="Página-1" id="2wNSkFwUTsily4vIm5Uc">
    <mxGraphModel dx="4347" dy="2096" grid="1" gridSize="10" guides="1" tooltips="1" connect="1" arrows="1" fold="1" page="1" pageScale="1" pageWidth="827" pageHeight="1169" math="0" shadow="0">
      <root>
        <mxCell id="0" />
        <mxCell id="1" parent="0" />
        <mxCell id="kF7yWYQd2iyiJ4gFR3c6-122" value="" style="ellipse;whiteSpace=wrap;html=1;aspect=fixed;" vertex="1" parent="1">
          <mxGeometry x="1529.5" y="4180" width="80" height="80" as="geometry" />
        </mxCell>
        <mxCell id="kF7yWYQd2iyiJ4gFR3c6-5" style="edgeStyle=orthogonalEdgeStyle;rounded=0;orthogonalLoop=1;jettySize=auto;html=1;" edge="1" parent="1" source="kF7yWYQd2iyiJ4gFR3c6-1" target="kF7yWYQd2iyiJ4gFR3c6-3">
          <mxGeometry relative="1" as="geometry" />
        </mxCell>
        <mxCell id="kF7yWYQd2iyiJ4gFR3c6-1" value="" style="ellipse;whiteSpace=wrap;html=1;aspect=fixed;fillColor=#000000;" vertex="1" parent="1">
          <mxGeometry x="170" y="190" width="40" height="40" as="geometry" />
        </mxCell>
        <mxCell id="kF7yWYQd2iyiJ4gFR3c6-2" value="Inicio Prestar Libro" style="text;html=1;strokeColor=none;fillColor=none;align=center;verticalAlign=middle;whiteSpace=wrap;rounded=0;" vertex="1" parent="1">
          <mxGeometry x="135" y="140" width="110" height="30" as="geometry" />
        </mxCell>
        <mxCell id="kF7yWYQd2iyiJ4gFR3c6-7" style="edgeStyle=orthogonalEdgeStyle;rounded=0;orthogonalLoop=1;jettySize=auto;html=1;entryX=0.5;entryY=0;entryDx=0;entryDy=0;" edge="1" parent="1" source="kF7yWYQd2iyiJ4gFR3c6-3" target="kF7yWYQd2iyiJ4gFR3c6-6">
          <mxGeometry relative="1" as="geometry" />
        </mxCell>
        <mxCell id="kF7yWYQd2iyiJ4gFR3c6-3" value="Validar que la información requerida sea valida a nivel de tipo de dato, longitud, obligatoriedad, formato y rango." style="rounded=0;whiteSpace=wrap;html=1;" vertex="1" parent="1">
          <mxGeometry x="100" y="290" width="180" height="60" as="geometry" />
        </mxCell>
        <mxCell id="kF7yWYQd2iyiJ4gFR3c6-9" style="edgeStyle=orthogonalEdgeStyle;rounded=0;orthogonalLoop=1;jettySize=auto;html=1;" edge="1" parent="1" source="kF7yWYQd2iyiJ4gFR3c6-6" target="kF7yWYQd2iyiJ4gFR3c6-8">
          <mxGeometry relative="1" as="geometry" />
        </mxCell>
        <mxCell id="kF7yWYQd2iyiJ4gFR3c6-13" style="edgeStyle=orthogonalEdgeStyle;rounded=0;orthogonalLoop=1;jettySize=auto;html=1;" edge="1" parent="1" source="kF7yWYQd2iyiJ4gFR3c6-6" target="kF7yWYQd2iyiJ4gFR3c6-12">
          <mxGeometry relative="1" as="geometry" />
        </mxCell>
        <mxCell id="kF7yWYQd2iyiJ4gFR3c6-6" value="" style="rhombus;whiteSpace=wrap;html=1;" vertex="1" parent="1">
          <mxGeometry x="150" y="410" width="80" height="80" as="geometry" />
        </mxCell>
        <mxCell id="kF7yWYQd2iyiJ4gFR3c6-118" style="edgeStyle=orthogonalEdgeStyle;rounded=0;orthogonalLoop=1;jettySize=auto;html=1;" edge="1" parent="1" source="kF7yWYQd2iyiJ4gFR3c6-8" target="kF7yWYQd2iyiJ4gFR3c6-105">
          <mxGeometry relative="1" as="geometry">
            <Array as="points">
              <mxPoint x="2200" y="450" />
            </Array>
          </mxGeometry>
        </mxCell>
        <mxCell id="kF7yWYQd2iyiJ4gFR3c6-8" value="Mostrar un mensaje de error indicando que la información requerida no es valida" style="rounded=0;whiteSpace=wrap;html=1;" vertex="1" parent="1">
          <mxGeometry x="470" y="420" width="180" height="60" as="geometry" />
        </mxCell>
        <mxCell id="kF7yWYQd2iyiJ4gFR3c6-10" value="[La información requerida no es valida]" style="text;html=1;strokeColor=none;fillColor=none;align=center;verticalAlign=middle;whiteSpace=wrap;rounded=0;" vertex="1" parent="1">
          <mxGeometry x="250" y="420" width="210" height="30" as="geometry" />
        </mxCell>
        <mxCell id="kF7yWYQd2iyiJ4gFR3c6-11" value="[La información requerida es valida]" style="text;html=1;strokeColor=none;fillColor=none;align=center;verticalAlign=middle;whiteSpace=wrap;rounded=0;" vertex="1" parent="1">
          <mxGeometry x="-20" y="500" width="210" height="30" as="geometry" />
        </mxCell>
        <mxCell id="kF7yWYQd2iyiJ4gFR3c6-15" style="edgeStyle=orthogonalEdgeStyle;rounded=0;orthogonalLoop=1;jettySize=auto;html=1;" edge="1" parent="1" source="kF7yWYQd2iyiJ4gFR3c6-12" target="kF7yWYQd2iyiJ4gFR3c6-14">
          <mxGeometry relative="1" as="geometry" />
        </mxCell>
        <mxCell id="kF7yWYQd2iyiJ4gFR3c6-12" value="Validar que el lector existe" style="rounded=0;whiteSpace=wrap;html=1;" vertex="1" parent="1">
          <mxGeometry x="100" y="550" width="180" height="60" as="geometry" />
        </mxCell>
        <mxCell id="kF7yWYQd2iyiJ4gFR3c6-18" style="edgeStyle=orthogonalEdgeStyle;rounded=0;orthogonalLoop=1;jettySize=auto;html=1;" edge="1" parent="1" source="kF7yWYQd2iyiJ4gFR3c6-14" target="kF7yWYQd2iyiJ4gFR3c6-17">
          <mxGeometry relative="1" as="geometry" />
        </mxCell>
        <mxCell id="kF7yWYQd2iyiJ4gFR3c6-20" style="edgeStyle=orthogonalEdgeStyle;rounded=0;orthogonalLoop=1;jettySize=auto;html=1;" edge="1" parent="1" source="kF7yWYQd2iyiJ4gFR3c6-14" target="kF7yWYQd2iyiJ4gFR3c6-19">
          <mxGeometry relative="1" as="geometry" />
        </mxCell>
        <mxCell id="kF7yWYQd2iyiJ4gFR3c6-14" value="" style="rhombus;whiteSpace=wrap;html=1;" vertex="1" parent="1">
          <mxGeometry x="150" y="650" width="80" height="80" as="geometry" />
        </mxCell>
        <mxCell id="kF7yWYQd2iyiJ4gFR3c6-16" value="[El lector no existe]" style="text;html=1;strokeColor=none;fillColor=none;align=center;verticalAlign=middle;whiteSpace=wrap;rounded=0;" vertex="1" parent="1">
          <mxGeometry x="190" y="660" width="210" height="30" as="geometry" />
        </mxCell>
        <mxCell id="kF7yWYQd2iyiJ4gFR3c6-117" style="edgeStyle=orthogonalEdgeStyle;rounded=0;orthogonalLoop=1;jettySize=auto;html=1;" edge="1" parent="1" source="kF7yWYQd2iyiJ4gFR3c6-17" target="kF7yWYQd2iyiJ4gFR3c6-105">
          <mxGeometry relative="1" as="geometry">
            <Array as="points">
              <mxPoint x="1940" y="700" />
            </Array>
          </mxGeometry>
        </mxCell>
        <mxCell id="kF7yWYQd2iyiJ4gFR3c6-17" value="Mostrar un mensaje de error indicando que el lector no existe" style="rounded=0;whiteSpace=wrap;html=1;" vertex="1" parent="1">
          <mxGeometry x="380" y="660" width="180" height="60" as="geometry" />
        </mxCell>
        <mxCell id="kF7yWYQd2iyiJ4gFR3c6-37" style="edgeStyle=orthogonalEdgeStyle;rounded=0;orthogonalLoop=1;jettySize=auto;html=1;" edge="1" parent="1" source="kF7yWYQd2iyiJ4gFR3c6-19" target="kF7yWYQd2iyiJ4gFR3c6-22">
          <mxGeometry relative="1" as="geometry" />
        </mxCell>
        <mxCell id="kF7yWYQd2iyiJ4gFR3c6-19" value="Validar si el lector esta activo" style="rounded=0;whiteSpace=wrap;html=1;" vertex="1" parent="1">
          <mxGeometry x="100" y="780" width="180" height="60" as="geometry" />
        </mxCell>
        <mxCell id="kF7yWYQd2iyiJ4gFR3c6-21" value="[El lector existe]" style="text;html=1;strokeColor=none;fillColor=none;align=center;verticalAlign=middle;whiteSpace=wrap;rounded=0;" vertex="1" parent="1">
          <mxGeometry x="20" y="740" width="210" height="30" as="geometry" />
        </mxCell>
        <mxCell id="kF7yWYQd2iyiJ4gFR3c6-38" style="edgeStyle=orthogonalEdgeStyle;rounded=0;orthogonalLoop=1;jettySize=auto;html=1;entryX=0;entryY=0.5;entryDx=0;entryDy=0;" edge="1" parent="1" source="kF7yWYQd2iyiJ4gFR3c6-22" target="kF7yWYQd2iyiJ4gFR3c6-24">
          <mxGeometry relative="1" as="geometry" />
        </mxCell>
        <mxCell id="kF7yWYQd2iyiJ4gFR3c6-39" style="edgeStyle=orthogonalEdgeStyle;rounded=0;orthogonalLoop=1;jettySize=auto;html=1;" edge="1" parent="1" source="kF7yWYQd2iyiJ4gFR3c6-22" target="kF7yWYQd2iyiJ4gFR3c6-25">
          <mxGeometry relative="1" as="geometry" />
        </mxCell>
        <mxCell id="kF7yWYQd2iyiJ4gFR3c6-22" value="" style="rhombus;whiteSpace=wrap;html=1;" vertex="1" parent="1">
          <mxGeometry x="150" y="900" width="80" height="80" as="geometry" />
        </mxCell>
        <mxCell id="kF7yWYQd2iyiJ4gFR3c6-23" value="[El lector esta inactivo]" style="text;html=1;strokeColor=none;fillColor=none;align=center;verticalAlign=middle;whiteSpace=wrap;rounded=0;" vertex="1" parent="1">
          <mxGeometry x="200" y="910" width="210" height="30" as="geometry" />
        </mxCell>
        <mxCell id="kF7yWYQd2iyiJ4gFR3c6-116" style="edgeStyle=orthogonalEdgeStyle;rounded=0;orthogonalLoop=1;jettySize=auto;html=1;" edge="1" parent="1" source="kF7yWYQd2iyiJ4gFR3c6-24" target="kF7yWYQd2iyiJ4gFR3c6-105">
          <mxGeometry relative="1" as="geometry">
            <Array as="points">
              <mxPoint x="1870" y="940" />
            </Array>
          </mxGeometry>
        </mxCell>
        <mxCell id="kF7yWYQd2iyiJ4gFR3c6-24" value="Mostrar un mensaje de error indicando que el lector no esta activo" style="rounded=0;whiteSpace=wrap;html=1;" vertex="1" parent="1">
          <mxGeometry x="390" y="910" width="180" height="60" as="geometry" />
        </mxCell>
        <mxCell id="kF7yWYQd2iyiJ4gFR3c6-40" style="edgeStyle=orthogonalEdgeStyle;rounded=0;orthogonalLoop=1;jettySize=auto;html=1;entryX=0.5;entryY=0;entryDx=0;entryDy=0;" edge="1" parent="1" source="kF7yWYQd2iyiJ4gFR3c6-25" target="kF7yWYQd2iyiJ4gFR3c6-27">
          <mxGeometry relative="1" as="geometry" />
        </mxCell>
        <mxCell id="kF7yWYQd2iyiJ4gFR3c6-25" value="Validar si el lector esta activo" style="rounded=0;whiteSpace=wrap;html=1;" vertex="1" parent="1">
          <mxGeometry x="100" y="1050" width="180" height="60" as="geometry" />
        </mxCell>
        <mxCell id="kF7yWYQd2iyiJ4gFR3c6-26" value="[El lector esta activo]" style="text;html=1;strokeColor=none;fillColor=none;align=center;verticalAlign=middle;whiteSpace=wrap;rounded=0;" vertex="1" parent="1">
          <mxGeometry x="20" y="1000" width="210" height="30" as="geometry" />
        </mxCell>
        <mxCell id="kF7yWYQd2iyiJ4gFR3c6-41" style="edgeStyle=orthogonalEdgeStyle;rounded=0;orthogonalLoop=1;jettySize=auto;html=1;" edge="1" parent="1" source="kF7yWYQd2iyiJ4gFR3c6-27" target="kF7yWYQd2iyiJ4gFR3c6-29">
          <mxGeometry relative="1" as="geometry" />
        </mxCell>
        <mxCell id="kF7yWYQd2iyiJ4gFR3c6-42" style="edgeStyle=orthogonalEdgeStyle;rounded=0;orthogonalLoop=1;jettySize=auto;html=1;" edge="1" parent="1" source="kF7yWYQd2iyiJ4gFR3c6-27" target="kF7yWYQd2iyiJ4gFR3c6-31">
          <mxGeometry relative="1" as="geometry" />
        </mxCell>
        <mxCell id="kF7yWYQd2iyiJ4gFR3c6-27" value="" style="rhombus;whiteSpace=wrap;html=1;" vertex="1" parent="1">
          <mxGeometry x="150" y="1170" width="80" height="80" as="geometry" />
        </mxCell>
        <mxCell id="kF7yWYQd2iyiJ4gFR3c6-28" value="[El lector tiene deudas]" style="text;html=1;strokeColor=none;fillColor=none;align=center;verticalAlign=middle;whiteSpace=wrap;rounded=0;" vertex="1" parent="1">
          <mxGeometry x="210" y="1180" width="210" height="30" as="geometry" />
        </mxCell>
        <mxCell id="kF7yWYQd2iyiJ4gFR3c6-115" style="edgeStyle=orthogonalEdgeStyle;rounded=0;orthogonalLoop=1;jettySize=auto;html=1;" edge="1" parent="1" source="kF7yWYQd2iyiJ4gFR3c6-29" target="kF7yWYQd2iyiJ4gFR3c6-105">
          <mxGeometry relative="1" as="geometry">
            <Array as="points">
              <mxPoint x="1800" y="1200" />
            </Array>
          </mxGeometry>
        </mxCell>
        <mxCell id="kF7yWYQd2iyiJ4gFR3c6-29" value="Mostrar un mensaje de error indicando que el lector tiene deudas pendientes" style="rounded=0;whiteSpace=wrap;html=1;" vertex="1" parent="1">
          <mxGeometry x="390" y="1180" width="180" height="60" as="geometry" />
        </mxCell>
        <mxCell id="kF7yWYQd2iyiJ4gFR3c6-30" value="[El lector no tiene deudas]" style="text;html=1;strokeColor=none;fillColor=none;align=center;verticalAlign=middle;whiteSpace=wrap;rounded=0;" vertex="1" parent="1">
          <mxGeometry x="10" y="1270" width="210" height="30" as="geometry" />
        </mxCell>
        <mxCell id="kF7yWYQd2iyiJ4gFR3c6-43" style="edgeStyle=orthogonalEdgeStyle;rounded=0;orthogonalLoop=1;jettySize=auto;html=1;entryX=0.5;entryY=0;entryDx=0;entryDy=0;" edge="1" parent="1" source="kF7yWYQd2iyiJ4gFR3c6-31" target="kF7yWYQd2iyiJ4gFR3c6-32">
          <mxGeometry relative="1" as="geometry" />
        </mxCell>
        <mxCell id="kF7yWYQd2iyiJ4gFR3c6-31" value="Validar si el lector tiene multas en el ultimo mes" style="rounded=0;whiteSpace=wrap;html=1;" vertex="1" parent="1">
          <mxGeometry x="100" y="1320" width="180" height="60" as="geometry" />
        </mxCell>
        <mxCell id="kF7yWYQd2iyiJ4gFR3c6-44" style="edgeStyle=orthogonalEdgeStyle;rounded=0;orthogonalLoop=1;jettySize=auto;html=1;entryX=0;entryY=0.5;entryDx=0;entryDy=0;" edge="1" parent="1" source="kF7yWYQd2iyiJ4gFR3c6-32" target="kF7yWYQd2iyiJ4gFR3c6-33">
          <mxGeometry relative="1" as="geometry" />
        </mxCell>
        <mxCell id="kF7yWYQd2iyiJ4gFR3c6-45" style="edgeStyle=orthogonalEdgeStyle;rounded=0;orthogonalLoop=1;jettySize=auto;html=1;entryX=0.5;entryY=0;entryDx=0;entryDy=0;" edge="1" parent="1" source="kF7yWYQd2iyiJ4gFR3c6-32" target="kF7yWYQd2iyiJ4gFR3c6-36">
          <mxGeometry relative="1" as="geometry" />
        </mxCell>
        <mxCell id="kF7yWYQd2iyiJ4gFR3c6-32" value="" style="rhombus;whiteSpace=wrap;html=1;" vertex="1" parent="1">
          <mxGeometry x="150" y="1430" width="80" height="80" as="geometry" />
        </mxCell>
        <mxCell id="kF7yWYQd2iyiJ4gFR3c6-114" style="edgeStyle=orthogonalEdgeStyle;rounded=0;orthogonalLoop=1;jettySize=auto;html=1;" edge="1" parent="1" source="kF7yWYQd2iyiJ4gFR3c6-33" target="kF7yWYQd2iyiJ4gFR3c6-105">
          <mxGeometry relative="1" as="geometry">
            <Array as="points">
              <mxPoint x="1730" y="1470" />
            </Array>
          </mxGeometry>
        </mxCell>
        <mxCell id="kF7yWYQd2iyiJ4gFR3c6-33" value="Mostrar un mensaje de error indicando que el lector ha tenido multas en el ultimo mes" style="rounded=0;whiteSpace=wrap;html=1;" vertex="1" parent="1">
          <mxGeometry x="460" y="1440" width="180" height="60" as="geometry" />
        </mxCell>
        <mxCell id="kF7yWYQd2iyiJ4gFR3c6-34" value="[El lector tiene multas durante el ultimo mes]" style="text;html=1;strokeColor=none;fillColor=none;align=center;verticalAlign=middle;whiteSpace=wrap;rounded=0;" vertex="1" parent="1">
          <mxGeometry x="240" y="1440" width="210" height="30" as="geometry" />
        </mxCell>
        <mxCell id="kF7yWYQd2iyiJ4gFR3c6-35" value="[El lector no tiene multas]" style="text;html=1;strokeColor=none;fillColor=none;align=center;verticalAlign=middle;whiteSpace=wrap;rounded=0;" vertex="1" parent="1">
          <mxGeometry x="10" y="1530" width="210" height="30" as="geometry" />
        </mxCell>
        <mxCell id="kF7yWYQd2iyiJ4gFR3c6-54" style="edgeStyle=orthogonalEdgeStyle;rounded=0;orthogonalLoop=1;jettySize=auto;html=1;entryX=0.5;entryY=0;entryDx=0;entryDy=0;" edge="1" parent="1" source="kF7yWYQd2iyiJ4gFR3c6-36" target="kF7yWYQd2iyiJ4gFR3c6-46">
          <mxGeometry relative="1" as="geometry" />
        </mxCell>
        <mxCell id="kF7yWYQd2iyiJ4gFR3c6-36" value="Validar que cantidad de prestamos actuales del lector no sea mayor a 3" style="rounded=0;whiteSpace=wrap;html=1;" vertex="1" parent="1">
          <mxGeometry x="100" y="1580" width="180" height="60" as="geometry" />
        </mxCell>
        <mxCell id="kF7yWYQd2iyiJ4gFR3c6-55" style="edgeStyle=orthogonalEdgeStyle;rounded=0;orthogonalLoop=1;jettySize=auto;html=1;" edge="1" parent="1" source="kF7yWYQd2iyiJ4gFR3c6-46" target="kF7yWYQd2iyiJ4gFR3c6-47">
          <mxGeometry relative="1" as="geometry" />
        </mxCell>
        <mxCell id="kF7yWYQd2iyiJ4gFR3c6-56" style="edgeStyle=orthogonalEdgeStyle;rounded=0;orthogonalLoop=1;jettySize=auto;html=1;entryX=0.5;entryY=0;entryDx=0;entryDy=0;" edge="1" parent="1" source="kF7yWYQd2iyiJ4gFR3c6-46" target="kF7yWYQd2iyiJ4gFR3c6-49">
          <mxGeometry relative="1" as="geometry" />
        </mxCell>
        <mxCell id="kF7yWYQd2iyiJ4gFR3c6-46" value="" style="rhombus;whiteSpace=wrap;html=1;" vertex="1" parent="1">
          <mxGeometry x="150" y="1700" width="80" height="80" as="geometry" />
        </mxCell>
        <mxCell id="kF7yWYQd2iyiJ4gFR3c6-113" style="edgeStyle=orthogonalEdgeStyle;rounded=0;orthogonalLoop=1;jettySize=auto;html=1;" edge="1" parent="1" source="kF7yWYQd2iyiJ4gFR3c6-47" target="kF7yWYQd2iyiJ4gFR3c6-105">
          <mxGeometry relative="1" as="geometry">
            <Array as="points">
              <mxPoint x="1630" y="1740" />
            </Array>
          </mxGeometry>
        </mxCell>
        <mxCell id="kF7yWYQd2iyiJ4gFR3c6-47" value="Mostrar un mensaje de error indicando que el lector tiene 3 prestamos activos" style="rounded=0;whiteSpace=wrap;html=1;" vertex="1" parent="1">
          <mxGeometry x="470" y="1710" width="180" height="60" as="geometry" />
        </mxCell>
        <mxCell id="kF7yWYQd2iyiJ4gFR3c6-48" value="[El lector tiene 3 prestamos activos]" style="text;html=1;strokeColor=none;fillColor=none;align=center;verticalAlign=middle;whiteSpace=wrap;rounded=0;" vertex="1" parent="1">
          <mxGeometry x="245" y="1710" width="210" height="30" as="geometry" />
        </mxCell>
        <mxCell id="kF7yWYQd2iyiJ4gFR3c6-57" style="edgeStyle=orthogonalEdgeStyle;rounded=0;orthogonalLoop=1;jettySize=auto;html=1;entryX=0.5;entryY=0;entryDx=0;entryDy=0;" edge="1" parent="1" source="kF7yWYQd2iyiJ4gFR3c6-49" target="kF7yWYQd2iyiJ4gFR3c6-51">
          <mxGeometry relative="1" as="geometry" />
        </mxCell>
        <mxCell id="kF7yWYQd2iyiJ4gFR3c6-49" value="Validar que el lector no tenga el mismo libro prestado actualmente" style="rounded=0;whiteSpace=wrap;html=1;" vertex="1" parent="1">
          <mxGeometry x="100" y="1860" width="180" height="60" as="geometry" />
        </mxCell>
        <mxCell id="kF7yWYQd2iyiJ4gFR3c6-50" value="[El lector tiene menos de 3 prestamos activos]" style="text;html=1;strokeColor=none;fillColor=none;align=center;verticalAlign=middle;whiteSpace=wrap;rounded=0;" vertex="1" parent="1">
          <mxGeometry x="-20" y="1800" width="210" height="30" as="geometry" />
        </mxCell>
        <mxCell id="kF7yWYQd2iyiJ4gFR3c6-58" style="edgeStyle=orthogonalEdgeStyle;rounded=0;orthogonalLoop=1;jettySize=auto;html=1;" edge="1" parent="1" source="kF7yWYQd2iyiJ4gFR3c6-51" target="kF7yWYQd2iyiJ4gFR3c6-53">
          <mxGeometry relative="1" as="geometry" />
        </mxCell>
        <mxCell id="kF7yWYQd2iyiJ4gFR3c6-61" style="edgeStyle=orthogonalEdgeStyle;rounded=0;orthogonalLoop=1;jettySize=auto;html=1;" edge="1" parent="1" source="kF7yWYQd2iyiJ4gFR3c6-51" target="kF7yWYQd2iyiJ4gFR3c6-59">
          <mxGeometry relative="1" as="geometry" />
        </mxCell>
        <mxCell id="kF7yWYQd2iyiJ4gFR3c6-51" value="" style="rhombus;whiteSpace=wrap;html=1;" vertex="1" parent="1">
          <mxGeometry x="150" y="1970" width="80" height="80" as="geometry" />
        </mxCell>
        <mxCell id="kF7yWYQd2iyiJ4gFR3c6-52" value="[El lector tiene prestado actualmente el mismo libro]" style="text;html=1;strokeColor=none;fillColor=none;align=center;verticalAlign=middle;whiteSpace=wrap;rounded=0;" vertex="1" parent="1">
          <mxGeometry x="245" y="1980" width="210" height="30" as="geometry" />
        </mxCell>
        <mxCell id="kF7yWYQd2iyiJ4gFR3c6-112" style="edgeStyle=orthogonalEdgeStyle;rounded=0;orthogonalLoop=1;jettySize=auto;html=1;" edge="1" parent="1" source="kF7yWYQd2iyiJ4gFR3c6-53" target="kF7yWYQd2iyiJ4gFR3c6-105">
          <mxGeometry relative="1" as="geometry">
            <Array as="points">
              <mxPoint x="1580" y="2020" />
            </Array>
          </mxGeometry>
        </mxCell>
        <mxCell id="kF7yWYQd2iyiJ4gFR3c6-53" value="Mostrar un mensaje de error indicando que el lector actualmente tiene prestado el mismo libro" style="rounded=0;whiteSpace=wrap;html=1;" vertex="1" parent="1">
          <mxGeometry x="470" y="1980" width="180" height="60" as="geometry" />
        </mxCell>
        <mxCell id="kF7yWYQd2iyiJ4gFR3c6-63" style="edgeStyle=orthogonalEdgeStyle;rounded=0;orthogonalLoop=1;jettySize=auto;html=1;" edge="1" parent="1" source="kF7yWYQd2iyiJ4gFR3c6-59" target="kF7yWYQd2iyiJ4gFR3c6-62">
          <mxGeometry relative="1" as="geometry" />
        </mxCell>
        <mxCell id="kF7yWYQd2iyiJ4gFR3c6-59" value="Validar que el libro a prestar exista" style="rounded=0;whiteSpace=wrap;html=1;" vertex="1" parent="1">
          <mxGeometry x="100" y="2130" width="180" height="60" as="geometry" />
        </mxCell>
        <mxCell id="kF7yWYQd2iyiJ4gFR3c6-60" value="[El lector no tiene prestado actualmente el mismo libro]" style="text;html=1;strokeColor=none;fillColor=none;align=center;verticalAlign=middle;whiteSpace=wrap;rounded=0;" vertex="1" parent="1">
          <mxGeometry x="-6" y="2070" width="210" height="30" as="geometry" />
        </mxCell>
        <mxCell id="kF7yWYQd2iyiJ4gFR3c6-66" style="edgeStyle=orthogonalEdgeStyle;rounded=0;orthogonalLoop=1;jettySize=auto;html=1;" edge="1" parent="1" source="kF7yWYQd2iyiJ4gFR3c6-62" target="kF7yWYQd2iyiJ4gFR3c6-64">
          <mxGeometry relative="1" as="geometry" />
        </mxCell>
        <mxCell id="kF7yWYQd2iyiJ4gFR3c6-69" style="edgeStyle=orthogonalEdgeStyle;rounded=0;orthogonalLoop=1;jettySize=auto;html=1;" edge="1" parent="1" source="kF7yWYQd2iyiJ4gFR3c6-62" target="kF7yWYQd2iyiJ4gFR3c6-68">
          <mxGeometry relative="1" as="geometry" />
        </mxCell>
        <mxCell id="kF7yWYQd2iyiJ4gFR3c6-62" value="" style="rhombus;whiteSpace=wrap;html=1;" vertex="1" parent="1">
          <mxGeometry x="150" y="2250" width="80" height="80" as="geometry" />
        </mxCell>
        <mxCell id="kF7yWYQd2iyiJ4gFR3c6-111" style="edgeStyle=orthogonalEdgeStyle;rounded=0;orthogonalLoop=1;jettySize=auto;html=1;" edge="1" parent="1" source="kF7yWYQd2iyiJ4gFR3c6-64" target="kF7yWYQd2iyiJ4gFR3c6-105">
          <mxGeometry relative="1" as="geometry">
            <Array as="points">
              <mxPoint x="1490" y="2290" />
            </Array>
          </mxGeometry>
        </mxCell>
        <mxCell id="kF7yWYQd2iyiJ4gFR3c6-64" value="Mostrar un mensaje de error indicando que el libro a prestar no existe" style="rounded=0;whiteSpace=wrap;html=1;" vertex="1" parent="1">
          <mxGeometry x="400" y="2260" width="180" height="60" as="geometry" />
        </mxCell>
        <mxCell id="kF7yWYQd2iyiJ4gFR3c6-65" value="[El libro a prestar no existe]" style="text;html=1;strokeColor=none;fillColor=none;align=center;verticalAlign=middle;whiteSpace=wrap;rounded=0;" vertex="1" parent="1">
          <mxGeometry x="204" y="2260" width="210" height="30" as="geometry" />
        </mxCell>
        <mxCell id="kF7yWYQd2iyiJ4gFR3c6-67" value="[El libro a prestar existe]" style="text;html=1;strokeColor=none;fillColor=none;align=center;verticalAlign=middle;whiteSpace=wrap;rounded=0;" vertex="1" parent="1">
          <mxGeometry x="10" y="2350" width="210" height="30" as="geometry" />
        </mxCell>
        <mxCell id="kF7yWYQd2iyiJ4gFR3c6-73" style="edgeStyle=orthogonalEdgeStyle;rounded=0;orthogonalLoop=1;jettySize=auto;html=1;entryX=0.5;entryY=0;entryDx=0;entryDy=0;" edge="1" parent="1" source="kF7yWYQd2iyiJ4gFR3c6-68" target="kF7yWYQd2iyiJ4gFR3c6-70">
          <mxGeometry relative="1" as="geometry">
            <mxPoint x="190" y="2590" as="targetPoint" />
          </mxGeometry>
        </mxCell>
        <mxCell id="kF7yWYQd2iyiJ4gFR3c6-68" value="Validar que el libro este activo" style="rounded=0;whiteSpace=wrap;html=1;" vertex="1" parent="1">
          <mxGeometry x="100" y="2390" width="180" height="60" as="geometry" />
        </mxCell>
        <mxCell id="kF7yWYQd2iyiJ4gFR3c6-74" style="edgeStyle=orthogonalEdgeStyle;rounded=0;orthogonalLoop=1;jettySize=auto;html=1;" edge="1" parent="1" source="kF7yWYQd2iyiJ4gFR3c6-70" target="kF7yWYQd2iyiJ4gFR3c6-71">
          <mxGeometry relative="1" as="geometry" />
        </mxCell>
        <mxCell id="kF7yWYQd2iyiJ4gFR3c6-77" style="edgeStyle=orthogonalEdgeStyle;rounded=0;orthogonalLoop=1;jettySize=auto;html=1;entryX=0.5;entryY=0;entryDx=0;entryDy=0;" edge="1" parent="1" source="kF7yWYQd2iyiJ4gFR3c6-70" target="kF7yWYQd2iyiJ4gFR3c6-76">
          <mxGeometry relative="1" as="geometry" />
        </mxCell>
        <mxCell id="kF7yWYQd2iyiJ4gFR3c6-70" value="" style="rhombus;whiteSpace=wrap;html=1;" vertex="1" parent="1">
          <mxGeometry x="150" y="2620" width="80" height="80" as="geometry" />
        </mxCell>
        <mxCell id="kF7yWYQd2iyiJ4gFR3c6-110" style="edgeStyle=orthogonalEdgeStyle;rounded=0;orthogonalLoop=1;jettySize=auto;html=1;" edge="1" parent="1" source="kF7yWYQd2iyiJ4gFR3c6-71" target="kF7yWYQd2iyiJ4gFR3c6-105">
          <mxGeometry relative="1" as="geometry">
            <Array as="points">
              <mxPoint x="1400" y="2650" />
            </Array>
          </mxGeometry>
        </mxCell>
        <mxCell id="kF7yWYQd2iyiJ4gFR3c6-71" value="Mostrar un mensaje de error indicando que el libro a prestar no esta activo" style="rounded=0;whiteSpace=wrap;html=1;" vertex="1" parent="1">
          <mxGeometry x="430" y="2630" width="180" height="60" as="geometry" />
        </mxCell>
        <mxCell id="kF7yWYQd2iyiJ4gFR3c6-72" value="[El libro a prestar no esta activo]" style="text;html=1;strokeColor=none;fillColor=none;align=center;verticalAlign=middle;whiteSpace=wrap;rounded=0;" vertex="1" parent="1">
          <mxGeometry x="230" y="2630" width="210" height="30" as="geometry" />
        </mxCell>
        <mxCell id="kF7yWYQd2iyiJ4gFR3c6-75" value="[El libro a prestar esta activo]" style="text;html=1;strokeColor=none;fillColor=none;align=center;verticalAlign=middle;whiteSpace=wrap;rounded=0;" vertex="1" parent="1">
          <mxGeometry x="-6" y="2720" width="210" height="30" as="geometry" />
        </mxCell>
        <mxCell id="kF7yWYQd2iyiJ4gFR3c6-91" style="edgeStyle=orthogonalEdgeStyle;rounded=0;orthogonalLoop=1;jettySize=auto;html=1;entryX=0.5;entryY=0;entryDx=0;entryDy=0;" edge="1" parent="1" source="kF7yWYQd2iyiJ4gFR3c6-76" target="kF7yWYQd2iyiJ4gFR3c6-79">
          <mxGeometry relative="1" as="geometry" />
        </mxCell>
        <mxCell id="kF7yWYQd2iyiJ4gFR3c6-76" value="Validar que el libro a prestar no este reservado" style="rounded=0;whiteSpace=wrap;html=1;" vertex="1" parent="1">
          <mxGeometry x="100" y="2770" width="180" height="60" as="geometry" />
        </mxCell>
        <mxCell id="kF7yWYQd2iyiJ4gFR3c6-92" style="edgeStyle=orthogonalEdgeStyle;rounded=0;orthogonalLoop=1;jettySize=auto;html=1;entryX=0;entryY=0.5;entryDx=0;entryDy=0;" edge="1" parent="1" source="kF7yWYQd2iyiJ4gFR3c6-79" target="kF7yWYQd2iyiJ4gFR3c6-80">
          <mxGeometry relative="1" as="geometry" />
        </mxCell>
        <mxCell id="kF7yWYQd2iyiJ4gFR3c6-103" style="edgeStyle=orthogonalEdgeStyle;rounded=0;orthogonalLoop=1;jettySize=auto;html=1;" edge="1" parent="1" source="kF7yWYQd2iyiJ4gFR3c6-79" target="kF7yWYQd2iyiJ4gFR3c6-82">
          <mxGeometry relative="1" as="geometry" />
        </mxCell>
        <mxCell id="kF7yWYQd2iyiJ4gFR3c6-79" value="" style="rhombus;whiteSpace=wrap;html=1;" vertex="1" parent="1">
          <mxGeometry x="150" y="2900" width="80" height="80" as="geometry" />
        </mxCell>
        <mxCell id="kF7yWYQd2iyiJ4gFR3c6-109" style="edgeStyle=orthogonalEdgeStyle;rounded=0;orthogonalLoop=1;jettySize=auto;html=1;" edge="1" parent="1" source="kF7yWYQd2iyiJ4gFR3c6-80" target="kF7yWYQd2iyiJ4gFR3c6-105">
          <mxGeometry relative="1" as="geometry">
            <mxPoint x="1420" y="3940" as="targetPoint" />
            <Array as="points">
              <mxPoint x="1300" y="2930" />
            </Array>
          </mxGeometry>
        </mxCell>
        <mxCell id="kF7yWYQd2iyiJ4gFR3c6-80" value="Mostrar un mensaje de error indicando que el libro a prestar tiene una reserva pendiente" style="rounded=0;whiteSpace=wrap;html=1;" vertex="1" parent="1">
          <mxGeometry x="390" y="2900" width="180" height="60" as="geometry" />
        </mxCell>
        <mxCell id="kF7yWYQd2iyiJ4gFR3c6-81" value="[El libro a prestar esta reservado]" style="text;html=1;strokeColor=none;fillColor=none;align=center;verticalAlign=middle;whiteSpace=wrap;rounded=0;" vertex="1" parent="1">
          <mxGeometry x="200" y="2880" width="210" height="30" as="geometry" />
        </mxCell>
        <mxCell id="kF7yWYQd2iyiJ4gFR3c6-104" style="edgeStyle=orthogonalEdgeStyle;rounded=0;orthogonalLoop=1;jettySize=auto;html=1;" edge="1" parent="1" source="kF7yWYQd2iyiJ4gFR3c6-82" target="kF7yWYQd2iyiJ4gFR3c6-84">
          <mxGeometry relative="1" as="geometry" />
        </mxCell>
        <mxCell id="kF7yWYQd2iyiJ4gFR3c6-82" value="Validar que el libro a prestar no pertenezca a la reserva historica" style="rounded=0;whiteSpace=wrap;html=1;" vertex="1" parent="1">
          <mxGeometry x="100" y="3040" width="180" height="60" as="geometry" />
        </mxCell>
        <mxCell id="kF7yWYQd2iyiJ4gFR3c6-83" value="[El libro a prestar no esta reservado]" style="text;html=1;strokeColor=none;fillColor=none;align=center;verticalAlign=middle;whiteSpace=wrap;rounded=0;" vertex="1" parent="1">
          <mxGeometry x="-75" y="2970" width="210" height="30" as="geometry" />
        </mxCell>
        <mxCell id="kF7yWYQd2iyiJ4gFR3c6-89" style="edgeStyle=orthogonalEdgeStyle;rounded=0;orthogonalLoop=1;jettySize=auto;html=1;" edge="1" parent="1" source="kF7yWYQd2iyiJ4gFR3c6-84" target="kF7yWYQd2iyiJ4gFR3c6-87">
          <mxGeometry relative="1" as="geometry" />
        </mxCell>
        <mxCell id="kF7yWYQd2iyiJ4gFR3c6-90" style="edgeStyle=orthogonalEdgeStyle;rounded=0;orthogonalLoop=1;jettySize=auto;html=1;" edge="1" parent="1" source="kF7yWYQd2iyiJ4gFR3c6-84" target="kF7yWYQd2iyiJ4gFR3c6-85">
          <mxGeometry relative="1" as="geometry" />
        </mxCell>
        <mxCell id="kF7yWYQd2iyiJ4gFR3c6-84" value="" style="rhombus;whiteSpace=wrap;html=1;" vertex="1" parent="1">
          <mxGeometry x="150" y="3170" width="80" height="80" as="geometry" />
        </mxCell>
        <mxCell id="kF7yWYQd2iyiJ4gFR3c6-108" style="edgeStyle=orthogonalEdgeStyle;rounded=0;orthogonalLoop=1;jettySize=auto;html=1;" edge="1" parent="1" source="kF7yWYQd2iyiJ4gFR3c6-85" target="kF7yWYQd2iyiJ4gFR3c6-105">
          <mxGeometry relative="1" as="geometry">
            <Array as="points">
              <mxPoint x="1140" y="3210" />
            </Array>
          </mxGeometry>
        </mxCell>
        <mxCell id="kF7yWYQd2iyiJ4gFR3c6-85" value="Mostrar un mensaje de error indicando que el libro a prestar pertenece a la reserva historica" style="rounded=0;whiteSpace=wrap;html=1;" vertex="1" parent="1">
          <mxGeometry x="430" y="3180" width="180" height="60" as="geometry" />
        </mxCell>
        <mxCell id="kF7yWYQd2iyiJ4gFR3c6-86" value="[El libro a prestar pertenece a la reserva historica]" style="text;html=1;strokeColor=none;fillColor=none;align=center;verticalAlign=middle;whiteSpace=wrap;rounded=0;" vertex="1" parent="1">
          <mxGeometry x="220" y="3180" width="210" height="30" as="geometry" />
        </mxCell>
        <mxCell id="kF7yWYQd2iyiJ4gFR3c6-98" style="edgeStyle=orthogonalEdgeStyle;rounded=0;orthogonalLoop=1;jettySize=auto;html=1;entryX=0.5;entryY=0;entryDx=0;entryDy=0;" edge="1" parent="1" source="kF7yWYQd2iyiJ4gFR3c6-87" target="kF7yWYQd2iyiJ4gFR3c6-94">
          <mxGeometry relative="1" as="geometry" />
        </mxCell>
        <mxCell id="kF7yWYQd2iyiJ4gFR3c6-87" value="Validar que hayan existencias disponibles del libro para prestar" style="rounded=0;whiteSpace=wrap;html=1;" vertex="1" parent="1">
          <mxGeometry x="100" y="3320" width="180" height="60" as="geometry" />
        </mxCell>
        <mxCell id="kF7yWYQd2iyiJ4gFR3c6-88" value="[El libro a prestar no pertenece a la reserva historica]" style="text;html=1;strokeColor=none;fillColor=none;align=center;verticalAlign=middle;whiteSpace=wrap;rounded=0;" vertex="1" parent="1">
          <mxGeometry x="-30" y="3270" width="210" height="30" as="geometry" />
        </mxCell>
        <mxCell id="kF7yWYQd2iyiJ4gFR3c6-93" value="[No hay ejemplares disponibles del libro a prestar]" style="text;html=1;strokeColor=none;fillColor=none;align=center;verticalAlign=middle;whiteSpace=wrap;rounded=0;" vertex="1" parent="1">
          <mxGeometry x="220" y="3480" width="210" height="30" as="geometry" />
        </mxCell>
        <mxCell id="kF7yWYQd2iyiJ4gFR3c6-99" style="edgeStyle=orthogonalEdgeStyle;rounded=0;orthogonalLoop=1;jettySize=auto;html=1;entryX=0.5;entryY=0;entryDx=0;entryDy=0;" edge="1" parent="1" source="kF7yWYQd2iyiJ4gFR3c6-94" target="kF7yWYQd2iyiJ4gFR3c6-96">
          <mxGeometry relative="1" as="geometry" />
        </mxCell>
        <mxCell id="kF7yWYQd2iyiJ4gFR3c6-94" value="" style="rhombus;whiteSpace=wrap;html=1;" vertex="1" parent="1">
          <mxGeometry x="150" y="3470" width="80" height="80" as="geometry" />
        </mxCell>
        <mxCell id="kF7yWYQd2iyiJ4gFR3c6-106" style="edgeStyle=orthogonalEdgeStyle;rounded=0;orthogonalLoop=1;jettySize=auto;html=1;entryX=0.25;entryY=0;entryDx=0;entryDy=0;" edge="1" parent="1" source="kF7yWYQd2iyiJ4gFR3c6-95" target="kF7yWYQd2iyiJ4gFR3c6-105">
          <mxGeometry relative="1" as="geometry">
            <Array as="points">
              <mxPoint x="809" y="3510" />
            </Array>
          </mxGeometry>
        </mxCell>
        <mxCell id="kF7yWYQd2iyiJ4gFR3c6-95" value="Mostrar un mensaje de error indicando que no hay libros disponibles del ejemplar desesado para prestar" style="rounded=0;whiteSpace=wrap;html=1;" vertex="1" parent="1">
          <mxGeometry x="440" y="3480" width="180" height="60" as="geometry" />
        </mxCell>
        <mxCell id="kF7yWYQd2iyiJ4gFR3c6-101" style="edgeStyle=orthogonalEdgeStyle;rounded=0;orthogonalLoop=1;jettySize=auto;html=1;entryX=0.5;entryY=0;entryDx=0;entryDy=0;" edge="1" parent="1" source="kF7yWYQd2iyiJ4gFR3c6-96" target="kF7yWYQd2iyiJ4gFR3c6-100">
          <mxGeometry relative="1" as="geometry" />
        </mxCell>
        <mxCell id="kF7yWYQd2iyiJ4gFR3c6-96" value="Registrar prestamo del libro al lector" style="rounded=0;whiteSpace=wrap;html=1;" vertex="1" parent="1">
          <mxGeometry x="100" y="3620" width="180" height="60" as="geometry" />
        </mxCell>
        <mxCell id="kF7yWYQd2iyiJ4gFR3c6-97" value="[Hay ejemplares disponibles del libro a prestar]" style="text;html=1;strokeColor=none;fillColor=none;align=center;verticalAlign=middle;whiteSpace=wrap;rounded=0;" vertex="1" parent="1">
          <mxGeometry x="-30" y="3570" width="210" height="30" as="geometry" />
        </mxCell>
        <mxCell id="kF7yWYQd2iyiJ4gFR3c6-119" style="edgeStyle=orthogonalEdgeStyle;rounded=0;orthogonalLoop=1;jettySize=auto;html=1;" edge="1" parent="1" source="kF7yWYQd2iyiJ4gFR3c6-100" target="kF7yWYQd2iyiJ4gFR3c6-105">
          <mxGeometry relative="1" as="geometry">
            <Array as="points">
              <mxPoint x="190" y="3950" />
              <mxPoint x="190" y="3950" />
            </Array>
          </mxGeometry>
        </mxCell>
        <mxCell id="kF7yWYQd2iyiJ4gFR3c6-100" value="Mostrar un mensjae de exito indicando que el prestamo del libro se ha registrado de forma exitosa" style="rounded=0;whiteSpace=wrap;html=1;" vertex="1" parent="1">
          <mxGeometry x="100" y="3770" width="180" height="60" as="geometry" />
        </mxCell>
        <mxCell id="kF7yWYQd2iyiJ4gFR3c6-102" style="edgeStyle=orthogonalEdgeStyle;rounded=0;orthogonalLoop=1;jettySize=auto;html=1;entryX=0;entryY=0.5;entryDx=0;entryDy=0;" edge="1" parent="1" source="kF7yWYQd2iyiJ4gFR3c6-94" target="kF7yWYQd2iyiJ4gFR3c6-95">
          <mxGeometry relative="1" as="geometry" />
        </mxCell>
        <mxCell id="kF7yWYQd2iyiJ4gFR3c6-123" style="edgeStyle=orthogonalEdgeStyle;rounded=0;orthogonalLoop=1;jettySize=auto;html=1;entryX=0.5;entryY=0;entryDx=0;entryDy=0;" edge="1" parent="1" source="kF7yWYQd2iyiJ4gFR3c6-124" target="kF7yWYQd2iyiJ4gFR3c6-122">
          <mxGeometry relative="1" as="geometry" />
        </mxCell>
        <mxCell id="kF7yWYQd2iyiJ4gFR3c6-105" value="" style="rounded=0;whiteSpace=wrap;html=1;fillColor=#000000;" vertex="1" parent="1">
          <mxGeometry x="39" y="3950" width="3081" height="60" as="geometry" />
        </mxCell>
        <mxCell id="kF7yWYQd2iyiJ4gFR3c6-121" value="" style="ellipse;whiteSpace=wrap;html=1;aspect=fixed;fillColor=#000000;" vertex="1" parent="1">
          <mxGeometry x="1549.5" y="4200" width="40" height="40" as="geometry" />
        </mxCell>
        <mxCell id="kF7yWYQd2iyiJ4gFR3c6-125" value="" style="edgeStyle=orthogonalEdgeStyle;rounded=0;orthogonalLoop=1;jettySize=auto;html=1;entryX=0.5;entryY=0;entryDx=0;entryDy=0;" edge="1" parent="1" source="kF7yWYQd2iyiJ4gFR3c6-105" target="kF7yWYQd2iyiJ4gFR3c6-124">
          <mxGeometry relative="1" as="geometry">
            <mxPoint x="1580" y="4010" as="sourcePoint" />
            <mxPoint x="1110" y="4180" as="targetPoint" />
          </mxGeometry>
        </mxCell>
        <mxCell id="kF7yWYQd2iyiJ4gFR3c6-124" value="Fin de prestar libro" style="text;html=1;align=center;verticalAlign=middle;resizable=0;points=[];autosize=1;strokeColor=none;fillColor=none;" vertex="1" parent="1">
          <mxGeometry x="1519.5" y="4130" width="120" height="30" as="geometry" />
        </mxCell>
      </root>
    </mxGraphModel>
  </diagram>
</mxfile>
